# xmcd CD database file
#
# Track frame offsets:
#	150
#	23587
#	44166
#	76301
#	90155
#	105105
#	123421
#	140348
#	157569
#	177614
#	192571
#	207692
#
# Disc length: 2960 seconds
#
# Revision: 0
# Processed by: cddbd v1.5.1PL0 Copyright (c) Steve Scherf et al.
# Submitted via: CDex 1.51
#
DISCID=960b8e0c
DTITLE=M.J.Q - Jazz History 5
DYEAR=2005
DGENRE=Jazz
TTITLE0=M.J.Q - I'll Remember April
TTITLE1=M.J.Q - All Of You
TTITLE2=M.J.Q - DJango
TTITLE3=M.J.Q - One Bass Hit
TTITLE4=M.J.Q - The Queen's Fancy
TTITLE5=M.J.Q - Delaunay's Dilemma
TTITLE6=M.J.Q - Autumn In New York
TTITLE7=M.J.Q - But Not For Me
TTITLE8=M.J.Q - Milano
TTITLE9=M.J.Q - Vendome
TTITLE10=M.J.Q - All The Things You Are
TTITLE11=M.J.Q - La Ronde
EXTD=YEAR: 2005
EXTT0=
EXTT1=
EXTT2=
EXTT3=
EXTT4=
EXTT5=
EXTT6=
EXTT7=
EXTT8=
EXTT9=
EXTT10=
EXTT11=
PLAYORDER=
